PathFileType	4	(X/Y/Z)	Patient4_TMGait_0pt4_03_right_23.trc.trc
DataRate	CameraRate	NumFrames	NumMarkers	Units	OrigDataRate	OrigDataStartFrame	OrigNumFrames
72.164948453608	72.164948453608	5	33	mm	72.164948453608	89	       141
Frame#	Time	Sacral			L.Shoulder			Chest			R.Shoulder			Neck			R.ASIS			L.ASIS			R.Thigh.Superior			R.Thigh.Lateral			R.Thigh.Inferior			R.Patella			L.Thigh.Superior			L.Thigh.Lateral			L.Thigh.Inferior			L.Patella			L.Shank.Superior			L.Shank.Lateral			L.Shank.Inferior			R.Shank.Superior			R.Shank.Lateral			R.Shank.Inferior			R.Heel			R.Midfoot.Superior			R.Midfoot.Lateral			R.Toe			L.Heel			L.Midfoot.Lateral			L.Midfoot.Superior			L.Toe			L.Elbow			L.Wrist			R.Elbow			R.Wrist			
		X1	Y1	Z1	X2	Y2	Z2	X3	Y3	Z3	X4	Y4	Z4	X5	Y5	Z5	X6	Y6	Z6	X7	Y7	Z7	X8	Y8	Z8	X9	Y9	Z9	X10	Y10	Z10	X11	Y11	Z11	X12	Y12	Z12	X13	Y13	Z13	X14	Y14	Z14	X15	Y15	Z15	X16	Y16	Z16	X17	Y17	Z17	X18	Y18	Z18	X19	Y19	Z19	X20	Y20	Z20	X21	Y21	Z21	X22	Y22	Z22	X23	Y23	Z23	X24	Y24	Z24	X25	Y25	Z25	X26	Y26	Z26	X27	Y27	Z27	X28	Y28	Z28	X29	Y29	Z29	X30	Y30	Z30	X31	Y31	Z31	X32	Y32	Z32	X33	Y33	Z33	

89	30.659428571429	817.161165332425	1001.763095849570	477.792544164829	957.266880359547	1434.385150084725	281.399537403206	1077.853855248950	1372.200130583638	432.507360087388	1008.181920314910	1441.509563070372	614.252596012026	949.867314562312	1495.519522468189	438.052584282487	1054.738192742177	941.268179692722	575.018439184397	1019.291875421764	966.367502335184	302.787002573618	1076.671468957320	731.403695390488	549.557954905701	991.511342795303	626.669671244626	618.130873698008	1062.151322453651	565.524042069796	539.578117854238	1052.388206431660	463.196707853675	557.899003776592	1085.254434850421	759.809362397693	328.678463156051	1005.680490240488	637.332524831022	269.322841231774	1100.442147298529	566.409945235060	326.507776101589	1106.614319920645	496.123242629803	333.688133323053	1080.048034389034	422.296673750132	325.170832609306	990.077404971751	307.809843544415	275.861107488308	1047.094667470193	195.758572389283	340.193200462026	986.857093999329	390.145444734898	565.661598330193	879.195474560743	324.916774723588	627.860735523717	882.731822600114	217.739633136448	572.873977037703	697.644547473917	101.126855745172	547.746678530529	874.972956990473	103.327614290844	585.238016813331	774.178462174719	65.970044475004	620.108678765241	974.448955949800	36.861443778164	610.865751664545	924.228583602845	38.441096152667	383.284025307513	992.722183995111	35.841894817112	298.188426995983	1076.987443964506	97.884368941419	320.591242411756	1203.534079990082	46.763599145782	282.599203846495	928.086732623008	1088.046926955698	149.780595391132	1069.107303035468	864.844606511586	130.409369855135	1059.803008886629	1096.823808818733	734.670026162592	1265.186651995769	945.239734301890	691.275873738319	
90	30.673285714286	815.898506247310	1001.639578109955	473.809842297150	957.198487397818	1434.785386812126	278.153413839052	1076.721048115905	1372.476461881645	430.037818186660	1005.851601651505	1441.515973210322	611.422556095639	948.805787403440	1495.773964979572	434.822114264850	1053.127911528113	941.608834995888	571.944420582326	1018.838047385439	966.702713234351	299.592938938728	1079.825918832407	733.029843406379	547.011950724272	997.696716729616	627.005242949549	616.240168314575	1070.278772934460	566.798536804583	538.106470900371	1062.076825103351	463.207855962690	557.871980536259	1083.663225844881	759.209124518212	326.040586467574	1003.263002792128	637.219784379482	266.885790885917	1096.983470949463	565.717943001191	324.744040613193	1102.564048897513	495.539681295337	332.326214511368	1075.904178949532	421.679129122432	323.891088010683	985.799940512293	307.282237429185	274.694853411879	1042.066970720774	195.387092387473	339.856555020010	994.471161369115	390.890438657281	565.806462752369	884.383241368459	329.240487682971	627.369760906098	885.696163161117	221.463505062109	573.721575187987	697.344352456914	111.822552974661	548.489832582816	874.023247266903	104.725113941473	585.782562094287	771.717452455591	72.410045422518	620.531847720380	969.078201077923	36.343996885091	610.868468890253	918.552043307611	38.385436549951	383.270173188632	987.033827886334	35.728571588463	298.142085069061	1071.311351535511	97.756185313623	320.598707571466	1197.880505675388	46.651386820695	282.601607867839	931.548746552389	1088.482895816833	145.464093296597	1078.013729167249	868.601511038537	128.658349576326	1051.576622896602	1096.240700902517	732.822510598004	1249.085672730990	932.410744245158	695.205423823824	
91	30.687142857143	814.531225170513	1001.438750602898	469.841112210612	957.174627517610	1435.085640531880	274.974103512576	1075.579625470366	1372.633367137275	427.651818725469	1003.472146702503	1441.407352464868	608.654877901736	947.762386519776	1495.949094783389	431.615020025179	1051.416334922638	941.868986994458	568.967774364384	1018.320870671044	966.944061894401	296.487235591191	1083.370656991827	734.939530369723	544.538186727977	1004.591339693120	627.550800049658	614.499335049872	1079.204545512327	568.449742765566	536.784146824759	1072.716671612490	463.694278043294	557.860615120791	1081.981086389435	758.603402979572	323.581160328927	1000.879437059046	637.146658764174	264.348510358960	1093.478810471410	565.044893601027	322.956574439413	1098.433062729329	494.952943429596	330.860654158651	1071.701050850754	421.066405036382	322.492358313245	981.485963535474	306.732193609559	273.428691539087	1037.032847010947	195.013566425486	339.420835514200	1003.161334883543	391.977158567712	565.951539551711	890.751124137817	334.082577194988	626.999767692049	889.659909304114	225.795254161289	574.648484050393	698.227526427354	123.961711798891	549.310379255703	873.712892852788	106.646489876143	586.341137693280	770.013111613431	80.052038061763	621.034765832878	963.753230663960	35.628084184797	610.918224744657	912.900678571577	38.334660597129	383.227362138291	981.370974233714	35.616054717651	298.063440678523	1065.661446655724	97.631073227898	320.566915708112	1192.261626605109	46.513844460698	282.591968097817	935.160385946960	1088.903952453677	141.146497837128	1087.132634516842	872.630080490613	127.039951564407	1043.017808060439	1095.578340992418	730.889925477198	1231.878189565900	920.076322788152	699.287225812053	
92	30.701000000000	813.057971462779	1001.164294484199	465.906371079700	957.189405440734	1435.276771254971	271.886562752156	1074.427647702792	1372.669795725093	425.372192504464	1001.039621461592	1441.188768055470	605.969014357761	946.740126872680	1496.046802049991	428.447913804988	1049.618168211546	942.056667843481	566.133282782840	1017.761012073004	967.088836008413	293.512337579144	1087.212772191680	737.167660424152	542.135691646110	1012.046027379747	628.364919929185	612.895549123972	1088.736382851317	570.542013271671	535.585117166448	1084.104938508461	464.719130436255	557.790692351661	1080.234362168210	757.992994143723	321.241041303386	998.487101706228	637.092552401752	261.741585013729	1089.948108862662	564.381537842072	321.093139757731	1094.258485941828	494.362278325827	329.264705965449	1067.465998202740	420.458694699391	320.967944805695	977.139405360155	306.168925745177	272.065257078335	1032.001791349205	194.640114625030	338.880082137797	1012.759419396688	393.456460719831	566.008533155466	898.203509826216	339.413046033426	626.716231834481	894.541089520742	230.733372229210	575.575013276825	700.335428564455	137.413904380048	550.156544874613	874.058729820287	109.230862703966	586.894167594668	769.148799568606	88.902189261182	621.587514501705	958.558573796858	34.714802914934	611.019490822292	907.280936447488	38.290850306218	383.155706632240	975.738522394370	35.504689580850	297.951412023150	1060.042699051571	97.507780083882	320.493096881063	1186.683371514854	46.350893843813	282.567252317882	938.895898304473	1089.305308802406	136.852624531694	1096.430084490541	876.943499019725	125.558731281985	1034.139020444993	1094.843298604878	728.861112416173	1213.647089109914	908.351246905261	703.443611896910	
93	30.714857142857	811.483192789814	1000.829659605818	462.031597705976	957.243686935187	1435.362491751741	268.913381262060	1073.267153483855	1372.596673022599	423.222314707821	998.554377380908	1440.876971519638	603.384424987534	945.746715687660	1496.078836820117	425.343195661373	1047.752613190792	942.191417910159	563.480441874271	1017.178803468331	967.144892515044	290.705191004954	1091.239095016202	739.740269829561	539.804779831219	1019.870962427137	629.499589224836	611.406874329439	1098.641390374329	573.127002078576	534.475557184795	1095.992863877461	466.325034486603	557.591397799570	1078.442662066627	757.373745085614	318.958612851551	996.041349941371	637.037077277431	259.107390199184	1086.401848603711	563.718689317045	319.122783521209	1090.067166136019	493.767241467164	327.529774307674	1063.215493537836	419.857716706887	319.327688862272	972.755598945004	305.603329544974	270.617712453446	1026.974173647247	194.268869710361	338.237394324528	1023.039741359283	395.368646493830	565.896581602912	906.575759943253	345.173985742514	626.470785219433	900.213877683554	236.238560030376	576.412976601661	703.649404423886	151.920248457539	550.957546511796	875.075982692512	112.582376271663	587.418020377162	769.189466733582	98.862916318100	622.143709055257	953.626346094528	33.644687882903	611.168642867651	901.691965534410	38.255465564235	383.058780472599	970.134601789155	35.394607392965	297.808891272290	1054.454587781465	97.383489991077	320.377963936022	1181.144400139554	46.161134513621	282.526442806764	942.723590605816	1089.687983714460	132.619053322992	1105.853553070439	881.550684299768	124.215703782214	1024.965768926425	1094.057362234041	726.730550505285	1194.505113526520	897.347983551552	707.581550775626	
